<svg xmlns="http://www.w3.org/2000/svg" viewBox="0 0 500 180" role="img" aria-label="Targa di verifica Sigillo Ver0">
  <title>Targa di verifica — sigillo, dati e QR univoco (generato per ciascuna impresa)</title>
  <rect x="1" y="1" width="498" height="178" rx="14" fill="#FFFFFF" stroke="#0E5238" stroke-width="1.4"/>
  <circle cx="88" cy="82" r="58" fill="#FFFFFF"/>
  <circle cx="88" cy="82" r="48" fill="none" stroke="#0E5238" stroke-width="1.4" stroke-dasharray="0.1 6.9" stroke-linecap="round"/>
  <path d="M 88 34 A 48 48 0 0 1 128 57" fill="none" stroke="#0E5238" stroke-width="2.8" stroke-linecap="round"/>
  <path d="M 132 63 A 48 48 0 0 1 134 89" fill="none" stroke="#1D9E75" stroke-width="2.8" stroke-linecap="round"/>
  <ellipse cx="88" cy="77" rx="15" ry="23" fill="none" stroke="#0E5238" stroke-width="2.6"/>
  <text x="88" y="113" text-anchor="middle" style="font-family: 'Fraunces', Georgia, serif; font-size: 9px; letter-spacing: 3px;" fill="#0A3D2A">2026</text>
  <text x="172" y="56" style="font-family: 'Fraunces', Georgia, serif; font-weight: 700; font-size: 18px;" fill="#0E5238">Sigillo Ver0</text>
  <text x="172" y="80" style="font-family: 'Inter', sans-serif; font-size: 12px;" fill="#0A3D2A">Percorsi verificati, ogni anno.</text>
  <text x="172" y="106" style="font-family: 'Inter', sans-serif; font-size: 11.5px; letter-spacing: 1px;" fill="#0E5238">VER0-2026-00001</text>
  <text x="172" y="126" style="font-family: 'Inter', sans-serif; font-size: 11px;" fill="#0A3D2A">verzero.it/verifica</text>
  <rect x="382" y="34" width="96" height="96" rx="6" fill="none" stroke="#0E5238" stroke-width="1.6"/>
  <rect x="390" y="42" width="22" height="22" fill="none" stroke="#0E5238" stroke-width="3"/>
  <rect x="448" y="42" width="22" height="22" fill="none" stroke="#0E5238" stroke-width="3"/>
  <rect x="390" y="100" width="22" height="22" fill="none" stroke="#0E5238" stroke-width="3"/>
  <text x="430" y="86" text-anchor="middle" style="font-family: 'Inter', sans-serif; font-size: 10px;" fill="#0E5238">QR</text>
  <text x="26" y="162" style="font-family: 'Inter', sans-serif; font-size: 9px;" fill="#6B7F74">QR e codice sono univoci per ciascuna impresa e generati dalla piattaforma.</text>
</svg>
